HIERARCHY
ROOT Hips
{
  OFFSET 5.84602e-005 68.8428 3.50346
  CHANNELS 6 Xposition Yposition Zposition Zrotation Xrotation Yrotation
  JOINT Spine
  {
    OFFSET 0 8.597 -4.6522
    CHANNELS 3 Zrotation Xrotation Yrotation
    JOINT Spine1
    {
      OFFSET 0 7.8454 0.4098
      CHANNELS 3 Zrotation Xrotation Yrotation
      JOINT Spine2
      {
        OFFSET 0 9.7078 -2.1609
        CHANNELS 3 Zrotation Xrotation Yrotation
        JOINT Neck
        {
          OFFSET 0 21.8761 -0.4549
          CHANNELS 3 Zrotation Xrotation Yrotation
          JOINT Head
          {
            OFFSET 0 12.3537 3.3602
            CHANNELS 3 Zrotation Xrotation Yrotation
            End Site
            {
              OFFSET 0.0001 18.9506 0.5657
            }
          }
        }
        JOINT LeftShoulder
        {
          OFFSET 2.2086 21.1115 7.2329
          CHANNELS 3 Zrotation Xrotation Yrotation
          JOINT LeftArm
          {
            OFFSET 13.1193 3.0282 -4.8998
            CHANNELS 3 Zrotation Xrotation Yrotation
            JOINT LeftForeArm
            {
              OFFSET 27.4081 -0.0973053 -0.2375
              CHANNELS 3 Zrotation Xrotation Yrotation
              JOINT LeftHand
              {
                OFFSET 22.8641 0.0662994 -0.1369
                CHANNELS 3 Zrotation Xrotation Yrotation
                JOINT LeftHandIndex1
                {
                  OFFSET 8.8614 0.775009 2.4612
                  CHANNELS 3 Zrotation Xrotation Yrotation
                  JOINT LeftHandIndex2
                  {
                    OFFSET 3.3146 -0.808304 0.5841
                    CHANNELS 3 Zrotation Xrotation Yrotation
                    JOINT LeftHandIndex3
                    {
                      OFFSET 2.2628 -0.552002 0.3989
                      CHANNELS 3 Zrotation Xrotation Yrotation
                      End Site
                      {
                        OFFSET 1.6102 -0.4807 0.2612
                      }
                    }
                  }
                }
                JOINT LeftHandMiddle1
                {
                  OFFSET 8.9937 0.895004 0.2143
                  CHANNELS 3 Zrotation Xrotation Yrotation
                  JOINT LeftHandMiddle2
                  {
                    OFFSET 4.0984 0.0113983 -0.0242
                    CHANNELS 3 Zrotation Xrotation Yrotation
                    JOINT LeftHandMiddle3
                    {
                      OFFSET 2.2716 0.00689697 -0.0138001
                      CHANNELS 3 Zrotation Xrotation Yrotation
                      End Site
                      {
                        OFFSET 2.0404 -0.1441 0.0027
                      }
                    }
                  }
                }
                JOINT LeftHandRing1
                {
                  OFFSET 8.5234 0.597198 -2.0164
                  CHANNELS 3 Zrotation Xrotation Yrotation
                  JOINT LeftHandRing2
                  {
                    OFFSET 3.7188 -0.188293 -0.2328
                    CHANNELS 3 Zrotation Xrotation Yrotation
                    JOINT LeftHandRing3
                    {
                      OFFSET 2.1191 -0.106598 -0.1332
                      CHANNELS 3 Zrotation Xrotation Yrotation
                      End Site
                      {
                        OFFSET 1.8737 -0.2304 -0.0886
                      }
                    }
                  }
                }
                JOINT LeftHandPinky1
                {
                  OFFSET 7.9094 -0.601089 -3.4825
                  CHANNELS 3 Zrotation Xrotation Yrotation
                  JOINT LeftHandPinky2
                  {
                    OFFSET 2.2874 -0.477005 -0.6314
                    CHANNELS 3 Zrotation Xrotation Yrotation
                    JOINT LeftHandPinky3
                    {
                      OFFSET 1.6774 -0.349396 -0.4633
                      CHANNELS 3 Zrotation Xrotation Yrotation
                      End Site
                      {
                        OFFSET 1.4888 -0.4091 -0.3416
                      }
                    }
                  }
                }
                JOINT LeftHandThumb1
                {
                  OFFSET 1.833 -1.3875 1.3896
                  CHANNELS 3 Zrotation Xrotation Yrotation
                  JOINT LeftHandThumb2
                  {
                    OFFSET 3.4129 -1.121 2.5732
                    CHANNELS 3 Zrotation Xrotation Yrotation
                    JOINT LeftHandThumb3
                    {
                      OFFSET 2.2474 -0.804199 1.6192
                      CHANNELS 3 Zrotation Xrotation Yrotation
                      End Site
                      {
                        OFFSET 1.6527 -0.5689 1.1317
                      }
                    }
                  }
                }
              }
            }
          }
        }
        JOINT RightShoulder
        {
          OFFSET -2.2086 21.1115 7.2329
          CHANNELS 3 Zrotation Xrotation Yrotation
          JOINT RightArm
          {
            OFFSET -13.1216 3.0287 -4.9007
            CHANNELS 3 Zrotation Xrotation Yrotation
            JOINT RightForeArm
            {
              OFFSET -27.4081 -0.0973053 -0.2375
              CHANNELS 3 Zrotation Xrotation Yrotation
              JOINT RightHand
              {
                OFFSET -22.8641 0.0664063 -0.1369
                CHANNELS 3 Zrotation Xrotation Yrotation
                JOINT RightHandIndex1
                {
                  OFFSET -8.8614 0.774994 2.4612
                  CHANNELS 3 Zrotation Xrotation Yrotation
                  JOINT RightHandIndex2
                  {
                    OFFSET -3.3146 -0.808304 0.5841
                    CHANNELS 3 Zrotation Xrotation Yrotation
                    JOINT RightHandIndex3
                    {
                      OFFSET -2.2628 -0.552002 0.3989
                      CHANNELS 3 Zrotation Xrotation Yrotation
                      End Site
                      {
                        OFFSET -1.6102 -0.4807 0.2612
                      }
                    }
                  }
                }
                JOINT RightHandMiddle1
                {
                  OFFSET -8.9937 0.894989 0.2143
                  CHANNELS 3 Zrotation Xrotation Yrotation
                  JOINT RightHandMiddle2
                  {
                    OFFSET -4.0984 0.0113983 -0.0242
                    CHANNELS 3 Zrotation Xrotation Yrotation
                    JOINT RightHandMiddle3
                    {
                      OFFSET -2.2716 0.00691223 -0.0138001
                      CHANNELS 3 Zrotation Xrotation Yrotation
                      End Site
                      {
                        OFFSET -2.0404 -0.1441 0.0027
                      }
                    }
                  }
                }
                JOINT RightHandRing1
                {
                  OFFSET -8.5234 0.597198 -2.0164
                  CHANNELS 3 Zrotation Xrotation Yrotation
                  JOINT RightHandRing2
                  {
                    OFFSET -3.7188 -0.188309 -0.2328
                    CHANNELS 3 Zrotation Xrotation Yrotation
                    JOINT RightHandRing3
                    {
                      OFFSET -2.1191 -0.106598 -0.1332
                      CHANNELS 3 Zrotation Xrotation Yrotation
                      End Site
                      {
                        OFFSET -1.8737 -0.2304 -0.0886
                      }
                    }
                  }
                }
                JOINT RightHandPinky1
                {
                  OFFSET -7.9094 -0.601105 -3.4825
                  CHANNELS 3 Zrotation Xrotation Yrotation
                  JOINT RightHandPinky2
                  {
                    OFFSET -2.2874 -0.477005 -0.6314
                    CHANNELS 3 Zrotation Xrotation Yrotation
                    JOINT RightHandPinky3
                    {
                      OFFSET -1.6774 -0.349396 -0.4633
                      CHANNELS 3 Zrotation Xrotation Yrotation
                      End Site
                      {
                        OFFSET -1.4888 -0.4091 -0.3416
                      }
                    }
                  }
                }
                JOINT RightHandThumb1
                {
                  OFFSET -1.833 -1.38751 1.3896
                  CHANNELS 3 Zrotation Xrotation Yrotation
                  JOINT RightHandThumb2
                  {
                    OFFSET -3.41299 -1.12099 2.5732
                    CHANNELS 3 Zrotation Xrotation Yrotation
                    JOINT RightHandThumb3
                    {
                      OFFSET -2.24741 -0.804108 1.6192
                      CHANNELS 3 Zrotation Xrotation Yrotation
                      End Site
                      {
                        OFFSET -1.6527 -0.5689 1.1317
                      }
                    }
                  }
                }
              }
            }
          }
        }
      }
    }
  }
  JOINT RightUpLeg
  {
    OFFSET -9.1966 3.8861 -0.7581
    CHANNELS 3 Zrotation Xrotation Yrotation
    JOINT RightLeg
    {
      OFFSET -0.7359 -41.0265 0
      CHANNELS 3 Zrotation Xrotation Yrotation
      JOINT RightFoot
      {
        OFFSET 0 -40.2855 0
        CHANNELS 3 Zrotation Xrotation Yrotation
        JOINT RightToeBase
        {
          OFFSET 0 -5.6122 11.7359
          CHANNELS 3 Zrotation Xrotation Yrotation
          End Site
          {
            OFFSET 0 0 7.8731
          }
        }
      }
    }
  }
  JOINT LeftUpLeg
  {
    OFFSET 9.1965 3.8864 -0.7581
    CHANNELS 3 Zrotation Xrotation Yrotation
    JOINT LeftLeg
    {
      OFFSET 0.7359 -41.0268 0
      CHANNELS 3 Zrotation Xrotation Yrotation
      JOINT LeftFoot
      {
        OFFSET 0 -40.2855 0
        CHANNELS 3 Zrotation Xrotation Yrotation
        JOINT LeftToeBase
        {
          OFFSET 0 -5.6122 11.7359
          CHANNELS 3 Zrotation Xrotation Yrotation
          End Site
          {
            OFFSET 0 0 7.8731
          }
        }
      }
    }
  }
}
MOTION
Frames:	4
Frame Time:	0.0333333
-0.614822 16.4419 -30.855 -0.00102351 -35.8013 179.998 -0.00622695 -2.14278 0.146396 -0.00697776 -4.28559 0.292867 -0.00697784 -4.2856 0.292867 7.24593e-006 30.5971 -9.19358e-006 14.8772 5.71918 -1.52953 -24.9971 26.7979 -27.715 -43.2504 -7.02397 -19.7285 4.04997 -3.75974 -32.0559 -15.8809 0.0939829 -4.99003 2.89611e-007 -4.61615e-007 -6.55407e-007 2.89611e-007 -4.61615e-007 -6.55407e-007 4.77083e-015 6.36111e-015 -3.18055e-015 2.89611e-007 -4.61615e-007 -6.55407e-007 -0.0146382 -9.39657e-005 2.78007e-007 -1.65471e-006 -2.99558e-006 1.11279e-006 2.89611e-007 -4.61615e-007 -6.55407e-007 -0.0187413 -0.00116989 5.90172e-005 -4.77083e-015 -6.36111e-015 -3.18055e-015 2.89611e-007 -4.61615e-007 -6.55407e-007 -0.012223 -0.00323629 0.000670157 -1.59028e-015 -6.36111e-015 3.18055e-015 2.89611e-007 -4.61615e-007 -6.55407e-007 2.89611e-007 -4.61615e-007 -6.55407e-007 4.77083e-015 6.36111e-015 -3.18055e-015 24.4608 26.4162 26.0267 42.4803 -7.35337 19.3409 -4.13145 -3.81634 31.4759 17.3684 -0.597196 6.90798 1.44907e-007 2.30624e-007 -3.27788e-007 1.44907e-007 2.30624e-007 -3.27788e-007 -1.44907e-007 -2.30624e-007 3.27788e-007 1.44907e-007 2.30624e-007 -3.27788e-007 0.0149763 -8.95169e-005 1.41518e-006 -1.44904e-007 -2.30581e-007 3.27818e-007 1.44907e-007 2.30624e-007 -3.27788e-007 0.0189657 -0.00118425 -5.6533e-005 -1.449e-007 -2.3057e-007 3.27828e-007 1.44907e-007 2.30624e-007 -3.27788e-007 0.0122659 -0.00324366 -0.000672904 -1.44894e-007 -2.3059e-007 3.27817e-007 1.44907e-007 2.30624e-007 -3.27788e-007 1.44907e-007 2.30624e-007 -3.27788e-007 -1.44907e-007 -2.30624e-007 3.27788e-007 -74.4569 -43.3234 -87.3699 -134.297 29.9758 155.648 35.6267 42.7844 -24.5419 2.06338e-006 6.9107e-007 -2.109e-006 74.4716 -43.3222 87.3759 134.295 29.9749 -155.652 -35.6308 42.7911 24.5615 4.99308e-006 2.95502e-007 7.52403e-007 
-0.614824 16.5346 -30.6845 -0.00101422 -35.5538 179.998 -0.00288194 -1.78843 0.144565 -0.00124763 -3.57683 0.289252 -0.00124763 -3.57684 0.289252 -2.45389e-006 30.0909 4.49332e-006 14.6273 5.62777 -1.49155 -24.2251 25.4781 -27.8805 -43.7547 -6.79331 -19.8633 3.90438 -3.68081 -32.725 -15.4252 0.0701586 -4.73453 2.88779e-007 -4.64064e-007 -6.54036e-007 2.88779e-007 -4.64064e-007 -6.54036e-007 7.94503e-031 -9.54166e-015 4.77083e-015 2.88779e-007 -4.64064e-007 -6.54036e-007 -0.0146575 -9.12263e-005 2.4489e-006 4.77083e-015 -1.59028e-014 3.18055e-015 2.88779e-007 -4.64064e-007 -6.54036e-007 -0.0187953 -0.00117843 5.65065e-005 0 0 -6.36111e-015 2.88779e-007 -4.64064e-007 -6.54036e-007 -0.0122968 -0.00325802 0.000682418 1.11319e-014 -9.54166e-015 1.59028e-015 2.88779e-007 -4.64064e-007 -6.54036e-007 2.88779e-007 -4.64064e-007 -6.54036e-007 7.94503e-031 -9.54166e-015 4.77083e-015 23.7001 25.1244 26.2755 43.0252 -7.10855 19.4986 -3.98115 -3.73573 32.1747 16.8346 -0.596573 6.55153 -1.83497e-006 2.63691e-006 -6.55646e-007 -2.06843e-006 2.29468e-006 2.11392e-006 1.44628e-007 2.31627e-007 -3.27193e-007 -1.83497e-006 2.63691e-006 -6.55646e-007 0.0150336 -8.81523e-005 -6.91971e-007 1.44624e-007 2.31584e-007 -3.27224e-007 -1.83497e-006 2.63691e-006 -6.55646e-007 0.0189897 -0.00118709 -5.80975e-005 2.41092e-006 -1.71035e-006 -6.52861e-007 -1.83497e-006 2.63691e-006 -6.55646e-007 0.0122148 -0.00323245 -0.00067208 1.44615e-007 2.31594e-007 -3.27222e-007 -1.83497e-006 2.63691e-006 -6.55646e-007 -2.06843e-006 2.29468e-006 2.11392e-006 1.44628e-007 2.31627e-007 -3.27193e-007 -74.6011 -43.4941 -87.4791 -134.309 29.971 155.65 35.8532 43.0293 -24.8426 -1.82348e-007 2.52021e-006 -2.66139e-006 74.6149 -43.4932 87.4846 134.307 29.97 -155.654 -35.8573 43.0356 24.8611 2.24234e-006 1.83196e-006 5.50295e-007 
-0.614827 16.6182 -30.5309 -0.00100593 -35.3315 179.998 9.26345e-005 -1.46907 0.142883 0.00385337 -2.93816 0.285911 0.00385339 -2.93815 0.285911 -5.12186e-007 29.6359 1.616e-006 14.4026 5.54545 -1.45778 -23.539 24.2844 -28.009 -44.208 -6.58453 -19.9827 3.77404 -3.60813 -33.3274 -15.0149 0.0505891 -4.50433 -4.32118e-007 6.99393e-007 9.79151e-007 1.59028e-015 0 7.95139e-015 -2.88079e-007 4.66262e-007 6.52768e-007 -4.32118e-007 6.99393e-007 9.79151e-007 -0.0146513 -9.36814e-005 8.49909e-007 -2.61488e-006 -1.46049e-006 9.55501e-007 -4.32118e-007 6.99393e-007 9.79151e-007 -0.0187311 -0.00116968 5.72825e-005 -2.88064e-007 4.66156e-007 6.52847e-007 -4.32118e-007 6.99393e-007 9.79151e-007 -0.0122832 -0.00325107 0.000677018 -2.88052e-007 4.66195e-007 6.52825e-007 -4.32118e-007 6.99393e-007 9.79151e-007 1.59028e-015 0 7.95139e-015 -2.88079e-007 4.66262e-007 6.52768e-007 23.0255 23.9553 26.4794 43.5152 -6.88671 19.6382 -3.84661 -3.66143 32.8037 16.3541 -0.593716 6.23057 1.44393e-007 2.32529e-007 -3.26646e-007 1.44393e-007 2.32529e-007 -3.26646e-007 1.44393e-007 2.32529e-007 -3.26646e-007 1.44393e-007 2.32529e-007 -3.26646e-007 0.0150167 -8.83771e-005 3.34938e-006 1.44389e-007 2.32486e-007 -3.26676e-007 1.44393e-007 2.32529e-007 -3.26646e-007 0.0189792 -0.00119364 -5.65118e-005 -2.15792e-006 2.17177e-006 -1.77876e-008 1.44393e-007 2.32529e-007 -3.26646e-007 0.0122174 -0.00323182 -0.000671132 1.44379e-007 2.32496e-007 -3.26674e-007 1.44393e-007 2.32529e-007 -3.26646e-007 1.44393e-007 2.32529e-007 -3.26646e-007 1.44393e-007 2.32529e-007 -3.26646e-007 -74.7316 -43.6477 -87.5781 -134.319 29.9666 155.652 36.0593 43.249 -25.1154 -1.79505e-005 3.36984e-006 -1.27938e-006 74.7446 -43.647 87.5832 134.317 29.9657 -155.656 -36.0634 43.2551 25.133 1.44558e-006 5.95285e-007 1.24214e-007 
-0.61483 16.7018 -30.3773 -0.000997677 -35.1092 179.998 0.00304223 -1.14945 0.141172 0.00892041 -2.29884 0.28249 0.00892032 -2.29886 0.28249 2.18932e-006 29.1813 -2.48769e-007 14.178 5.46298 -1.42433 -22.8606 23.0866 -28.1211 -44.6608 -6.37473 -20.1005 3.64439 -3.53406 -33.9298 -14.6043 0.0326887 -4.27394 1.43719e-007 -2.34218e-007 -3.25737e-007 2.87437e-007 -4.68437e-007 -6.51475e-007 -1.43719e-007 2.34218e-007 3.25737e-007 1.43719e-007 -2.34218e-007 -3.25737e-007 -0.0145969 -8.65208e-005 -2.21859e-006 -1.43715e-007 2.34177e-007 3.25767e-007 1.43719e-007 -2.34218e-007 -3.25737e-007 -0.0188188 -0.00118441 6.0896e-005 -1.43711e-007 2.34165e-007 3.25777e-007 1.43719e-007 -2.34218e-007 -3.25737e-007 -0.0122702 -0.0032493 0.00067395 -1.43705e-007 2.34185e-007 3.25766e-007 1.43719e-007 -2.34218e-007 -3.25737e-007 2.87437e-007 -4.68437e-007 -6.51475e-007 -1.43719e-007 2.34218e-007 3.25737e-007 22.36 22.7814 26.667 44.0045 -6.6636 19.7759 -3.71283 -3.5856 33.4329 15.8734 -0.588111 5.9095 1.73825e-006 -2.7442e-006 -1.50156e-006 2.32656e-007 3.30898e-006 8.89115e-007 -4.3254e-007 -7.00268e-007 9.78267e-007 1.73825e-006 -2.7442e-006 -1.50156e-006 0.0149668 -9.04236e-005 2.85881e-006 -4.3253e-007 -7.0014e-007 9.78359e-007 1.73825e-006 -2.7442e-006 -1.50156e-006 0.0189981 -0.00119323 -5.67136e-005 -4.32517e-007 -7.00107e-007 9.78388e-007 1.73825e-006 -2.7442e-006 -1.50156e-006 0.0122713 -0.0032478 -0.000673038 1.16276e-006 -3.67822e-006 -1.96911e-007 1.73825e-006 -2.7442e-006 -1.50156e-006 2.32656e-007 3.30898e-006 8.89115e-007 -4.3254e-007 -7.00268e-007 9.78267e-007 -74.8629 -43.8012 -87.678 -134.329 29.9623 155.653 36.2678 43.4682 -25.3905 -6.85051e-006 -2.9167e-007 -4.71896e-007 74.8749 -43.8008 87.6826 134.327 29.9613 -155.657 -36.2719 43.474 25.4071 7.55868e-006 3.94988e-006 1.7462e-007 
